<svg xmlns="http://www.w3.org/2000/svg" xmlns:xlink="http://www.w3.org/1999/xlink" viewBox="0 0 373 375.99"><defs><style>.cls-1{fill:none;}.cls-2{clip-path:url(#clip-path);}.cls-3{fill:#005fb5;}.cls-4{fill:#fff;}</style><clipPath id="clip-path" transform="translate(-0.84)"><ellipse class="cls-1" cx="186.92" cy="187.99" rx="186.92" ry="187.99"/></clipPath></defs><g id="レイヤー_2" data-name="レイヤー 2"><g id="レイヤー_1-2" data-name="レイヤー 1"><g id="レイヤー_2-2" data-name="レイヤー 2"><g class="cls-2"><rect class="cls-3" width="373" height="375.99"/></g><g id="レイヤー_1-2-2" data-name="レイヤー 1-2"><path class="cls-4" d="M110.21,304.41a60.73,60.73,0,0,1-12.74-13h12.74ZM77.4,293c-.46-.48-.88-1-1.33-1.49H89.18a67.7,67.7,0,0,0,13.06,15.37A51.73,51.73,0,0,1,77.43,293Zm-15-32.64H79.24a66.92,66.92,0,0,0,6.2,24.21H70.69A52.05,52.05,0,0,1,62.42,260.31Zm7.17-31.16h15a67.36,67.36,0,0,0-5.41,24.22H62.3A52.2,52.2,0,0,1,69.59,229.15Zm7.86-10.24A51.79,51.79,0,0,1,102.31,205a67.74,67.74,0,0,0-14.22,17.22H74.43c1-1.15,1.94-2.26,3-3.32Zm32.81-11.45v14.8H96.1a61.15,61.15,0,0,1,14.11-14.82Zm0,45.94H86a60.51,60.51,0,0,1,6.15-24.25h18v24.22Zm6.87-46.72a60.65,60.65,0,0,1,15.19,15.62H117.11V206.68Zm1.2,97.6c-.41.3-.78.64-1.2.94V302.9a39.09,39.09,0,0,1-4.45-6.37,35.92,35.92,0,0,1-4-12H93.06a60.11,60.11,0,0,1-7-24.21h24.1v5.47a72.21,72.21,0,0,1,6.05-14.26c.26-.48.56-1,.83-1.44V229.15H132.2c2.27-2.64,4.71-5.34,7.37-8.12a67.81,67.81,0,0,0-13.46-16,51.8,51.8,0,0,1,21,10.42,6.77,6.77,0,0,1,5.86,1.92,176.53,176.53,0,0,1,22.55,27.08,62.53,62.53,0,1,0-41.61,71,58.79,58.79,0,0,1-5.21-2.88,48.92,48.92,0,0,1-10.25-8.28Z" transform="translate(-0.84)"/><path class="cls-4" d="M149.92,293.24c-.77,6.25-1.92,8-1.92,8s-1.14-1.77-1.91-8c-3.21-1.33-9.69-5.83-19.17-21.08,10.59,6.66,16,11.85,18.69,15.48-.24-4.23-.29-9.69,0-16.67-2.52-1.41-6.78-5.08-12.65-14.53,7,4.39,10.77,7.88,12.86,10.42.38-6.75,1-14.75,2.18-24.26,1.12,9.51,1.81,17.51,2.19,24.26,2.08-2.55,5.89-6,12.85-10.42-5.86,9.45-10.12,13.12-12.64,14.53.29,7,.24,12.5,0,16.67,2.73-3.63,8.09-8.82,18.68-15.48-9.47,15.25-16,19.79-19.16,21.08Zm-1.92-71c-65.09,65.51-15.69,86.25-2.84,90.3L144,336.66h8l-1.17-24.12c12.85-4.05,62.24-24.79-2.85-90.3Z" transform="translate(-0.84)"/><path class="cls-4" d="M157.47,152.27c5.49,11.46,30.3,10.89,45.36,3.65,13.41-6.44,21-19.11,18.66-29.87,7.06-3.73,29.72-15.4,50.45-22.92,24.94-9,41.83-7.4,43.31-26.66-16-10.88-25.23,3.34-47.91,17.14-18.84,11.46-42.11,21.88-49.44,25.07-6.92-8.55-21.57-10.55-35-4.1-15.06,7.23-31,26.28-25.5,37.69Z" transform="translate(-0.84)"/><path class="cls-4" d="M135.41,113.71l-.09.49a1,1,0,0,0-.14-.38c-.06-.13-.14-.22-.21-.35Zm-24.6-8.44L58.53,134.43l1.55,3.27,46.58-22.38a1.46,1.46,0,0,1,1.26,2.62L61.34,140.32l2.78,5.8,46.58-22.38a1.45,1.45,0,0,1,1.26,2.62L65.43,148.73l2.79,5.8,46.53-22.37a1.45,1.45,0,0,1,1.26,2.62L69.44,157.15l1.91,4,55.28-22.92a18.23,18.23,0,0,0,10-20c7.52-4,33.21-17.24,56.71-25.77,27.88-10.12,46.77-8.29,48.42-29.81-17.84-12.16-28.21,3.73-53.52,19.17-21.34,13-47.77,24.78-55.58,28.17A18.21,18.21,0,0,0,110.81,105.27Z" transform="translate(-0.84)"/><path class="cls-4" d="M314.17,287.4a4,4,0,0,1-3.47,2.08H217.62a4,4,0,0,1-3.46-2.08,4.4,4.4,0,0,1,0-4.17l39.67-71.48,1-1.93V168.16h18.56v41.66l1,1.93,39.67,71.48a4.35,4.35,0,0,1,0,4.17Zm6.92-8.33-39.67-71.49v-39.4h5.86V155.44H241.06v12.74h5.85V207.6l-39.67,71.49a13,13,0,0,0,0,12.5,11.94,11.94,0,0,0,10.41,6.25h93.08a12,12,0,0,0,10.42-6.25,13,13,0,0,0,0-12.5Z" transform="translate(-0.84)"/><path class="cls-4" d="M283.65,240.9h-39l-21,37.85a3.53,3.53,0,0,0,0,3.37,3.26,3.26,0,0,0,2.81,1.69h75.39a3.26,3.26,0,0,0,2.81-1.69,3.48,3.48,0,0,0,0-3.37l-21-37.85Z" transform="translate(-0.84)"/></g></g></g></g></svg>